<!DOCTYPE svg PUBLIC "-//W3C//DTD SVG 1.1//EN" "http://www.w3.org/Graphics/SVG/1.1/DTD/svg11.dtd">
<svg xmlns="http://www.w3.org/2000/svg" xmlns:xlink="http://www.w3.org/1999/xlink" version="1.1" color="black" width="816.00px" height="1056.00px">
<style type="text/css">
.fill {fill: currentColor}
.stroke {stroke: currentColor; fill: none}
text{white-space: pre}
</style>
<title>/tera/gill/PycharmProjects/MusicRaft/share/abc/new.abc page 1</title>
<!-- Creator: abcm2ps-8.14.5 -->
<!-- CreationDate: Mar  4, 2020 12:44 -->
<!-- CommandLine: -k 640 -v -A -O /tera/gill/PycharmProjects/MusicRaft/share/abc/new_page_.svg /tera/gill/PycharmProjects/MusicRaft/share/abc/new.abc -->
<g stroke-width="0.70" transform="scale(1.013)">
<!-- subtitle: some notes; hardly what you'd call a tune! -->
</g>
<g stroke-width="0.70" transform="scale(1.013)" font-family="FreeSerif" font-size="16.00">
<text x="407.14" y="86.68" text-anchor="middle">some notes; hardly what you'd call a tune!</text>
</g>
<g stroke-width="0.70" transform="scale(0.709)" font-family="FreeSerif" font-size="16.00">
<defs>
<ellipse id="hd" rx="4.1" ry="2.9" transform="rotate(-20)" class="fill"/>
</defs>
<use x="181.34" y="149.68" xlink:href="#hd"/>
<path d="M184.84 149.68v-21.00" class="stroke"/>
</g>
<g stroke-width="0.70" transform="scale(1.013)" font-family="FreeSerif" font-size="15.00" font-weight="bold">
<text x="134.64" y="106.88">= 88</text>
<defs>
<g id="rdots" class="fill">
	<circle cx="0" cy="-9" r="1.2"/>
	<circle cx="0" cy="-15" r="1.2"/>
</g>
</defs>
<use x="125.34" y="144.88" xlink:href="#rdots"/>
<path class="stroke" stroke-width="1" d="M121.34 144.88v-24.00"/>
<path class="stroke" stroke-width="3" d="M116.84 144.88v-24.00"/>
<abc type="B" row="15" col="0" x="108.34" y="116.88" width="28.00" height="32"/>
<path class="stroke" stroke-width="1" d="M265.04 144.88v-24.00"/>
<abc type="B" row="15" col="7" x="255.04" y="116.88" width="20.00" height="32"/>
<path class="stroke" stroke-width="1" d="M468.74 144.88v-24.00"/>
<abc type="B" row="15" col="16" x="458.74" y="116.88" width="20.00" height="32"/>
<path class="stroke" stroke-width="1" d="M738.94 144.88v-24.00"/>
<abc type="B" row="15" col="26" x="728.94" y="116.88" width="20.00" height="32"/>
<path d="m66.34 144.88  h672.60  M66.34 138.88  h672.60  M66.34 132.88  h672.60  M66.34 126.88  h672.60  M66.34 120.88  h672.60  " class="stroke"/>
<defs>
<path id="utclef" class="fill" d="m-50 -90  c-72 -41 -72 -158 52 -188  150 -10 220 188 90 256  -114 52 -275 0 -293 -136  -15 -181 93 -229 220 -334  88 -87 79 -133 62 -210  -51 33 -94 105 -89 186  17 267 36 374 49 574  6 96 -19 134 -77 135  -80 1 -126 -93 -61 -133  85 -41 133 101 31 105  23 17 92 37 90 -92  -10 -223 -39 -342 -50 -617  0 -90 0 -162 96 -232  56 72 63 230 22 289  -74 106 -257 168 -255 316  9 153 148 185 252 133  86 -65 29 -192 -80 -176  -71 12 -105 67 -59 124"/>
<use id="tclef" transform="translate(0,6) scale(0.045)" xlink:href="#utclef"/>
</defs>
<use x="78.34" y="138.88" xlink:href="#tclef"/>
<abc type="c" row="15" col="0" x="64.34" y="108.88" width="28.00" height="46"/>
<defs>
<path id="csig" class="fill" d="  m6 -5.3  c0.9 0 2.3 0.7 2.4 2.2  -1.2 -2 -3.6 0.1 -1.6 1.7  2 1 3.8 -3.5 -0.8 -4.7  -2 -0.4 -6.4 1.3 -5.8 7  0.4 6.4 7.9 6.8 9.1 0.7  -2.3 5.6 -6.7 5.1 -6.8 0  -0.5 -4.4 0.7 -7.5 3.5 -6.9"/>
</defs>
<use x="91.84" y="132.88" xlink:href="#csig"/>
<abc type="M" row="15" col="0" x="88.34" y="116.88" width="24.00" height="32"/>
<defs>
<path id="hl" class="stroke" d="m-6 0h12"/>
</defs>
<use x="144.14" y="150.88" xlink:href="#hl"/>
<defs>
<path id="Hd" class="fill" d="m3 -1.6  c-1 -1.8 -7 1.4 -6 3.2  1 1.8 7 -1.4 6 -3.2  m0.5 -0.3  c2 3.8 -5 7.6 -7 3.8  -2 -3.8 5 -7.6 7 -3.8"/>
</defs>
<use x="144.14" y="150.88" xlink:href="#Hd"/>
<path d="M147.64 150.88v-21.00" class="stroke"/>
<abc type="N" row="15" col="3" x="137.14" y="125.88" width="14.00" height="31"/>
<use x="215.24" y="147.88" xlink:href="#Hd"/>
<path d="M218.74 147.88v-21.00" class="stroke"/>
<abc type="N" row="15" col="5" x="208.24" y="122.88" width="14.00" height="31"/>
<use x="282.74" y="144.88" xlink:href="#hd"/>
<path d="M286.24 144.88v-21.00" class="stroke"/>
<abc type="N" row="15" col="8" x="276.24" y="119.88" width="13.00" height="31"/>
<use x="333.04" y="141.88" xlink:href="#hd"/>
<path d="M336.54 141.88v-21.00" class="stroke"/>
<abc type="N" row="15" col="10" x="326.54" y="116.88" width="13.00" height="31"/>
<use x="383.34" y="138.88" xlink:href="#hd"/>
<path d="M386.84 138.88v-21.00" class="stroke"/>
<abc type="N" row="15" col="12" x="376.84" y="113.88" width="13.00" height="31"/>
<use x="433.54" y="135.88" xlink:href="#hd"/>
<path d="M437.04 135.88v-21.00" class="stroke"/>
<abc type="N" row="15" col="14" x="427.04" y="110.88" width="13.00" height="31"/>
<abc type="b" row="15" col="17" x="480.04" y="150.88" width="6.00" height="6"/>
<path class="fill" d="M482.64 153.18l96.70 -7.60v-3.20l-96.70 7.60"/>
<use x="486.54" y="132.88" xlink:href="#hd"/>
<path d="M483.04 132.88v19.30" class="stroke"/>
<abc type="N" row="15" col="17" x="480.04" y="126.88" width="13.00" height="30"/>
<use x="518.54" y="129.88" xlink:href="#hd"/>
<path d="M515.04 129.88v19.80" class="stroke"/>
<abc type="N" row="15" col="18" x="512.04" y="123.88" width="13.00" height="31"/>
<use x="550.54" y="126.88" xlink:href="#hd"/>
<path d="M547.04 126.88v20.20" class="stroke"/>
<abc type="N" row="15" col="19" x="544.04" y="120.88" width="13.00" height="31"/>
<use x="582.54" y="123.88" xlink:href="#hd"/>
<path d="M579.04 123.88v20.70" class="stroke"/>
<abc type="N" row="15" col="20" x="576.04" y="117.88" width="13.00" height="32"/>
<abc type="e" row="15" col="20" x="576.04" y="143.88" width="6.00" height="6"/>
<abc type="b" row="15" col="22" x="611.54" y="139.88" width="6.00" height="6"/>
<path class="fill" d="M614.24 141.18l96.70 -7.60v-3.20l-96.70 7.60"/>
<use x="618.04" y="120.88" xlink:href="#hd"/>
<path d="M614.54 120.88v19.30" class="stroke"/>
<abc type="N" row="15" col="22" x="611.54" y="114.88" width="13.00" height="31"/>
<use x="650.04" y="117.88" xlink:href="#hd"/>
<path d="M646.54 117.88v19.80" class="stroke"/>
<abc type="N" row="15" col="23" x="643.54" y="111.88" width="13.00" height="32"/>
<use x="682.04" y="114.88" xlink:href="#hl"/>
<use x="682.04" y="114.88" xlink:href="#hd"/>
<path d="M678.54 114.88v20.20" class="stroke"/>
<abc type="N" row="15" col="24" x="675.54" y="108.88" width="13.00" height="32"/>
<use x="714.04" y="114.88" xlink:href="#hl"/>
<use x="714.04" y="111.88" xlink:href="#hd"/>
<path d="M710.54 111.88v20.70" class="stroke"/>
<abc type="N" row="15" col="25" x="706.04" y="105.88" width="14.50" height="33"/>
<abc type="e" row="15" col="25" x="706.04" y="132.88" width="6.00" height="6"/>
</g>
<g stroke-width="0.70" transform="scale(1.013)" font-family="FreeSerif" font-size="15.00" font-weight="bold">
<circle fill="none" r="7" stroke="red" stroke-width="2" cx="209.84" cy="209.88"/><path class="stroke" stroke-width="3" d="M277.94 218.88v-24.00"/>
<path class="stroke" stroke-width="1" d="M273.44 218.88v-24.00"/>
<use x="269.44" y="218.88" xlink:href="#rdots"/>
<abc type="B" row="16" col="16" x="261.44" y="190.88" width="25.00" height="32"/>
<path d="m66.34 218.88  h213.10  M66.34 212.88  h213.10  M66.34 206.88  h213.10  M66.34 200.88  h213.10  M66.34 194.88  h213.10  " class="stroke"/>
<use x="78.34" y="212.88" xlink:href="#tclef"/>
<abc type="c" row="16" col="0" x="64.34" y="182.88" width="28.00" height="46"/>
<abc type="b" row="16" col="0" x="88.34" y="205.88" width="6.00" height="6"/>
<path class="fill" d="M99.04 207.08l73.70 0.00v-3.20l-73.70 -0.00"/>
<path class="fill" d="M99.34 202.08l73.00 0.00v-3.20l-73.00 -0.00"/>
<use x="102.84" y="188.88" xlink:href="#hl"/>
<use x="102.84" y="182.88" xlink:href="#hl"/>
<use x="102.84" y="182.88" xlink:href="#hd"/>
<path d="M99.34 182.88v23.20" class="stroke"/>
<abc type="N" row="16" col="0" x="88.34" y="176.88" width="21.00" height="35"/>
<use x="127.14" y="188.88" xlink:href="#hl"/>
<use x="127.14" y="182.88" xlink:href="#hl"/>
<use x="127.14" y="179.88" xlink:href="#hd"/>
<path d="M123.64 179.88v26.20" class="stroke"/>
<abc type="N" row="16" col="3" x="119.14" y="173.88" width="14.50" height="38"/>
<use x="151.54" y="188.88" xlink:href="#hl"/>
<use x="151.54" y="182.88" xlink:href="#hl"/>
<use x="151.54" y="176.88" xlink:href="#hl"/>
<use x="151.54" y="176.88" xlink:href="#hd"/>
<path d="M148.04 176.88v29.20" class="stroke"/>
<abc type="N" row="16" col="6" x="143.54" y="170.88" width="14.50" height="41"/>
<use x="175.84" y="188.88" xlink:href="#hl"/>
<use x="175.84" y="182.88" xlink:href="#hl"/>
<use x="175.84" y="176.88" xlink:href="#hl"/>
<use x="175.84" y="173.88" xlink:href="#hd"/>
<path d="M172.34 173.88v32.20" class="stroke"/>
<abc type="N" row="16" col="9" x="167.84" y="167.88" width="14.50" height="44"/>
<abc type="e" row="16" col="9" x="167.84" y="205.88" width="6.00" height="6"/>
<defs>
<path id="ubclef" class="fill" d="m-200 -87  c124 -35 222 -78 254 -236  43 -228 -167 -246 -192 -103  59 -80 157 22 92 78  -62 47 -115 -22 -106 -88  21 -141 270 -136 274 52  -1 175 -106 264 -322 297  m357 -250  c0 -36 51 -34 51 0  0 37 -51 36 -51 0  m-2 -129  c0 -36 51 -34 51 0  0 38 -51 37 -51 0"/>
<use id="sbclef" transform="translate(0,14.5) scale(0.037)" xlink:href="#ubclef"/>
</defs>
<use x="194.84" y="200.88" xlink:href="#sbclef"/>
<abc type="c" row="16" col="9" x="180.84" y="190.88" width="26.00" height="31"/>
<use x="209.84" y="209.88" xlink:href="#Hd"/>
<circle class="fill" cx="218.54" cy="209.88" r="1.2"/>
<path d="M213.34 209.88v-21.00" class="stroke"/>
<abc type="N" row="16" col="13" x="202.84" y="184.88" width="22.00" height="31"/>
</g>
</svg>