<svg xmlns="http://www.w3.org/2000/svg" xmlns:xlink="http://www.w3.org/1999/xlink" version="1.1" viewBox="-128 -384 2000 2000">
	<style>
		.head {
			fill: {{ headshot_color }};
			stroke: black;
            stroke-width:55px;
		}
		.body {
			fill: {{ headshot_color }};
			stroke: black;
            stroke-width:55px;
		}
		.background {
			fill:  {{ toga_color }};
			stroke: black;
            stroke-width:55px;
		}
	</style>
    <circle class="background" cx="896" cy="640" r="884"/>
<g transform="scale(0.85) translate(150,0) matrix(1,0,0,-1,197.42373,1300.6102)">
    <circle class="head" cx="704" cy="1024" r="384"/>
    <path class="body" d="M 1408,131 Q 1408,11 1335,-58.5 1262,-128 1141,-128 H 267 Q 146,-128 73,-58.5 0,11 0,131 0,184 3.5,234.5 7,285 17.5,343.5 28,402 44,452 q 16,50 43,97.5 27,47.5 62,81 35,33.5 85.5,53.5 50.5,20 111.5,20 9,0 42,-21.5 33,-21.5 74.5,-48 41.5,-26.5 108,-48 Q 637,565 704,565 q 67,0 133.5,21.5 66.5,21.5 108,48 41.5,26.5 74.5,48 33,21.5 42,21.5 61,0 111.5,-20 50.5,-20 85.5,-53.5 35,-33.5 62,-81 27,-47.5 43,-97.5 16,-50 26.5,-108.5 10.5,-58.5 14,-109 Q 1408,184 1408,131 z"/>
</g>
</svg>
