<?xml version="1.0" standalone="no"?>
<!DOCTYPE svg PUBLIC "-//W3C//DTD SVG 1.1//EN"
	"http://www.w3.org/Graphics/SVG/1.1/DTD/svg11.dtd">
<svg xmlns="http://www.w3.org/2000/svg" version="1.1"
	xmlns:xlink="http://www.w3.org/1999/xlink"
	color="black"
	width="816.00px" height="1056.00px">
<style type="text/css">
.fill {fill: currentColor}
.stroke {stroke: currentColor; fill: none}
text{white-space: pre}
</style>
<title>/tera/gill/PycharmProjects/MusicRaft/share/abc/new.abc page 1</title>
<!-- Creator: abcm2ps-8.14.5 -->
<!-- CreationDate: Feb 21, 2020 20:19 -->
<!-- CommandLine: -k 640 -v -A -O /tera/gill/PycharmProjects/MusicRaft/share/abc/new_page_.svg /tera/gill/PycharmProjects/MusicRaft/share/abc/new.abc -->
<g stroke-width="0.70">
<!-- subtitle: some notes; hardly what you'd call a tune! -->
</g>
<g stroke-width="0.70" font-family="FreeSerif" font-size="16.00">
<text x="408.00" y="87.60" text-anchor="middle">some notes; hardly what you&apos;d call a tune!</text>
<defs>
<g id="rdots" class="fill">
	<circle cx="0" cy="-9" r="1.2"/>
	<circle cx="0" cy="-15" r="1.2"/>
</g>
</defs>
<use x="126.20" y="137.80" xlink:href="#rdots"/>
<path class="stroke" stroke-width="1"
	d="M122.20 137.80v-24.00"/>
<path class="stroke" stroke-width="3"
	d="M117.70 137.80v-24.00"/>
<abc type="B" row="14" col="0" x="109.20" y="109.80" width="28.00" height="32"/>
<path class="stroke" stroke-width="1"
	d="M267.90 137.80v-24.00"/>
<abc type="B" row="14" col="7" x="257.90" y="109.80" width="20.00" height="32"/>
<path class="stroke" stroke-width="1"
	d="M474.60 137.80v-24.00"/>
<abc type="B" row="14" col="16" x="464.60" y="109.80" width="20.00" height="32"/>
<path class="stroke" stroke-width="1"
	d="M748.80 137.80v-24.00"/>
<abc type="B" row="14" col="26" x="738.80" y="109.80" width="20.00" height="32"/>
<path d="m67.20 137.80
	h681.60
	M67.20 131.80
	h681.60
	M67.20 125.80
	h681.60
	M67.20 119.80
	h681.60
	M67.20 113.80
	h681.60
	" class="stroke"/>
<defs>
<path id="utclef" class="fill" d="m-50 -90
	c-72 -41 -72 -158 52 -188
	150 -10 220 188 90 256
	-114 52 -275 0 -293 -136
	-15 -181 93 -229 220 -334
	88 -87 79 -133 62 -210
	-51 33 -94 105 -89 186
	17 267 36 374 49 574
	6 96 -19 134 -77 135
	-80 1 -126 -93 -61 -133
	85 -41 133 101 31 105
	23 17 92 37 90 -92
	-10 -223 -39 -342 -50 -617
	0 -90 0 -162 96 -232
	56 72 63 230 22 289
	-74 106 -257 168 -255 316
	9 153 148 185 252 133
	86 -65 29 -192 -80 -176
	-71 12 -105 67 -59 124"/>
<use id="tclef" transform="translate(0,6) scale(0.045)"
	xlink:href="#utclef"/>
</defs>
<use x="79.20" y="131.80" xlink:href="#tclef"/>
<abc type="c" row="14" col="0" x="65.20" y="101.80" width="28.00" height="46"/>
<defs>
<path id="csig" class="fill" d="
	m6 -5.3
	c0.9 0 2.3 0.7 2.4 2.2
	-1.2 -2 -3.6 0.1 -1.6 1.7
	2 1 3.8 -3.5 -0.8 -4.7
	-2 -0.4 -6.4 1.3 -5.8 7
	0.4 6.4 7.9 6.8 9.1 0.7
	-2.3 5.6 -6.7 5.1 -6.8 0
	-0.5 -4.4 0.7 -7.5 3.5 -6.9"/>
</defs>
<use x="92.70" y="125.80" xlink:href="#csig"/>
<abc type="M" row="14" col="0" x="89.20" y="109.80" width="24.00" height="32"/>
<defs>
<path id="hl" class="stroke" d="m-6 0h12"/>
</defs>
<use x="145.20" y="143.80" xlink:href="#hl"/>
<defs>
<path id="Hd" class="fill" d="m3 -1.6
	c-1 -1.8 -7 1.4 -6 3.2
	1 1.8 7 -1.4 6 -3.2
	m0.5 -0.3
	c2 3.8 -5 7.6 -7 3.8
	-2 -3.8 5 -7.6 7 -3.8"/>
</defs>
<use x="145.20" y="143.80" xlink:href="#Hd"/>
<path d="M148.70 143.80v-21.00" class="stroke"/>
<abc type="N" row="14" col="3" x="138.20" y="118.80" width="14.00" height="31"/>
<use x="217.40" y="140.80" xlink:href="#Hd"/>
<path d="M220.90 140.80v-21.00" class="stroke"/>
<abc type="N" row="14" col="5" x="210.40" y="115.80" width="14.00" height="31"/>
<defs>
<ellipse id="hd" rx="4.1" ry="2.9"
	transform="rotate(-20)" class="fill"/>
</defs>
<use x="285.90" y="137.80" xlink:href="#hd"/>
<path d="M289.40 137.80v-21.00" class="stroke"/>
<abc type="N" row="14" col="8" x="279.40" y="112.80" width="13.00" height="31"/>
<use x="336.90" y="134.80" xlink:href="#hd"/>
<path d="M340.40 134.80v-21.00" class="stroke"/>
<abc type="N" row="14" col="10" x="330.40" y="109.80" width="13.00" height="31"/>
<use x="387.90" y="131.80" xlink:href="#hd"/>
<path d="M391.40 131.80v-21.00" class="stroke"/>
<abc type="N" row="14" col="12" x="381.40" y="106.80" width="13.00" height="31"/>
<use x="438.90" y="128.80" xlink:href="#hd"/>
<path d="M442.40 128.80v-21.00" class="stroke"/>
<abc type="N" row="14" col="14" x="432.40" y="103.80" width="13.00" height="31"/>
<abc type="b" row="14" col="17" x="486.20" y="143.80" width="6.00" height="6"/>
<path class="fill"
	d="M488.80 146.10l98.10 -7.60v-3.20l-98.10 7.60"/>
<use x="492.70" y="125.80" xlink:href="#hd"/>
<path d="M489.20 125.80v19.30" class="stroke"/>
<abc type="N" row="14" col="17" x="486.20" y="119.80" width="13.00" height="30"/>
<use x="525.10" y="122.80" xlink:href="#hd"/>
<path d="M521.60 122.80v19.80" class="stroke"/>
<abc type="N" row="14" col="18" x="518.60" y="116.80" width="13.00" height="31"/>
<use x="557.60" y="119.80" xlink:href="#hd"/>
<path d="M554.10 119.80v20.20" class="stroke"/>
<abc type="N" row="14" col="19" x="551.10" y="113.80" width="13.00" height="31"/>
<use x="590.10" y="116.80" xlink:href="#hd"/>
<path d="M586.60 116.80v20.70" class="stroke"/>
<abc type="N" row="14" col="20" x="583.60" y="110.80" width="13.00" height="32"/>
<abc type="e" row="14" col="20" x="583.60" y="136.80" width="6.00" height="6"/>
<abc type="b" row="14" col="22" x="619.60" y="132.80" width="6.00" height="6"/>
<path class="fill"
	d="M622.30 134.10l98.10 -7.60v-3.20l-98.10 7.60"/>
<use x="626.10" y="113.80" xlink:href="#hd"/>
<path d="M622.60 113.80v19.30" class="stroke"/>
<abc type="N" row="14" col="22" x="619.60" y="107.80" width="13.00" height="31"/>
<use x="658.60" y="110.80" xlink:href="#hd"/>
<path d="M655.10 110.80v19.80" class="stroke"/>
<abc type="N" row="14" col="23" x="652.10" y="104.80" width="13.00" height="32"/>
<use x="691.10" y="107.80" xlink:href="#hl"/>
<use x="691.10" y="107.80" xlink:href="#hd"/>
<path d="M687.60 107.80v20.20" class="stroke"/>
<abc type="N" row="14" col="24" x="684.60" y="101.80" width="13.00" height="32"/>
<use x="723.50" y="107.80" xlink:href="#hl"/>
<use x="723.50" y="104.80" xlink:href="#hd"/>
<path d="M720.00 104.80v20.70" class="stroke"/>
<abc type="N" row="14" col="25" x="715.50" y="98.80" width="14.50" height="33"/>
<abc type="e" row="14" col="25" x="715.50" y="125.80" width="6.00" height="6"/>
</g>
<g stroke-width="0.70" font-family="FreeSerif" font-size="16.00">
<path class="stroke" stroke-width="3"
	d="M281.70 211.80v-24.00"/>
<path class="stroke" stroke-width="1"
	d="M277.20 211.80v-24.00"/>
<use x="273.20" y="211.80" xlink:href="#rdots"/>
<abc type="B" row="15" col="16" x="265.20" y="183.80" width="25.00" height="32"/>
<path d="m67.20 211.80
	h216.00
	M67.20 205.80
	h216.00
	M67.20 199.80
	h216.00
	M67.20 193.80
	h216.00
	M67.20 187.80
	h216.00
	" class="stroke"/>
<use x="79.20" y="205.80" xlink:href="#tclef"/>
<abc type="c" row="15" col="0" x="65.20" y="175.80" width="28.00" height="46"/>
<abc type="b" row="15" col="0" x="89.20" y="198.80" width="6.00" height="6"/>
<path class="fill"
	d="M99.90 200.00l75.10 0.00v-3.20l-75.10 -0.00"/>
<path class="fill"
	d="M100.20 195.00l74.40 0.00v-3.20l-74.40 -0.00"/>
<use x="103.70" y="181.80" xlink:href="#hl"/>
<use x="103.70" y="175.80" xlink:href="#hl"/>
<use x="103.70" y="175.80" xlink:href="#hd"/>
<path d="M100.20 175.80v23.20" class="stroke"/>
<abc type="N" row="15" col="0" x="89.20" y="169.80" width="21.00" height="35"/>
<use x="128.50" y="181.80" xlink:href="#hl"/>
<use x="128.50" y="175.80" xlink:href="#hl"/>
<use x="128.50" y="172.80" xlink:href="#hd"/>
<path d="M125.00 172.80v26.20" class="stroke"/>
<abc type="N" row="15" col="3" x="120.50" y="166.80" width="14.50" height="38"/>
<use x="153.30" y="181.80" xlink:href="#hl"/>
<use x="153.30" y="175.80" xlink:href="#hl"/>
<use x="153.30" y="169.80" xlink:href="#hl"/>
<use x="153.30" y="169.80" xlink:href="#hd"/>
<path d="M149.80 169.80v29.20" class="stroke"/>
<abc type="N" row="15" col="6" x="145.30" y="163.80" width="14.50" height="41"/>
<use x="178.10" y="181.80" xlink:href="#hl"/>
<use x="178.10" y="175.80" xlink:href="#hl"/>
<use x="178.10" y="169.80" xlink:href="#hl"/>
<use x="178.10" y="166.80" xlink:href="#hd"/>
<path d="M174.60 166.80v32.20" class="stroke"/>
<abc type="N" row="15" col="9" x="170.10" y="160.80" width="14.50" height="44"/>
<abc type="e" row="15" col="9" x="170.10" y="198.80" width="6.00" height="6"/>
<defs>
<path id="ubclef" class="fill" d="m-200 -87
	c124 -35 222 -78 254 -236
	43 -228 -167 -246 -192 -103
	59 -80 157 22 92 78
	-62 47 -115 -22 -106 -88
	21 -141 270 -136 274 52
	-1 175 -106 264 -322 297
	m357 -250
	c0 -36 51 -34 51 0
	0 37 -51 36 -51 0
	m-2 -129
	c0 -36 51 -34 51 0
	0 38 -51 37 -51 0"/>
<use id="sbclef" transform="translate(0,14.5) scale(0.037)"
	xlink:href="#ubclef"/>
</defs>
<use x="197.20" y="193.80" xlink:href="#sbclef"/>
<abc type="c" row="15" col="9" x="183.20" y="183.80" width="26.00" height="31"/>
<use x="212.20" y="202.80" xlink:href="#Hd"/>
<circle class="fill" cx="220.90" cy="202.80" r="1.2"/>
<path d="M215.70 202.80v-21.00" class="stroke"/>
<abc type="N" row="15" col="13" x="205.20" y="177.80" width="22.00" height="31"/>
</g>
</svg>
