<?xml version="1.0" encoding="UTF-8" standalone="no"?>
<svg
   xmlns:dc="http://purl.org/dc/elements/1.1/"
   xmlns:cc="http://creativecommons.org/ns#"
   xmlns:rdf="http://www.w3.org/1999/02/22-rdf-syntax-ns#"
   xmlns:svg="http://www.w3.org/2000/svg"
   xmlns="http://www.w3.org/2000/svg"
   xmlns:sodipodi="http://sodipodi.sourceforge.net/DTD/sodipodi-0.dtd"
   xmlns:inkscape="http://www.inkscape.org/namespaces/inkscape"
   width="48"
   height="48"
   version="1.1"
   viewBox="0 0 48 48.000001"
   id="svg35"
   sodipodi:docname="flowcell.svg"
   inkscape:version="0.92.4 5da689c313, 2019-01-14"
   inkscape:export-filename="/tmp/flowcell.png"
   inkscape:export-xdpi="313.04001"
   inkscape:export-ydpi="313.04001">
  <metadata
     id="metadata39">
    <rdf:RDF>
      <cc:Work
         rdf:about="">
        <dc:format>image/svg+xml</dc:format>
        <dc:type
           rdf:resource="http://purl.org/dc/dcmitype/StillImage" />
      </cc:Work>
    </rdf:RDF>
  </metadata>
  <sodipodi:namedview
     pagecolor="#ffffff"
     bordercolor="#666666"
     borderopacity="1"
     objecttolerance="10"
     gridtolerance="10"
     guidetolerance="10"
     inkscape:pageopacity="0"
     inkscape:pageshadow="2"
     inkscape:window-width="1360"
     inkscape:window-height="716"
     id="namedview37"
     showgrid="false"
     inkscape:zoom="4.9166667"
     inkscape:cx="-54.101695"
     inkscape:cy="22.372882"
     inkscape:window-x="0"
     inkscape:window-y="31"
     inkscape:window-maximized="1"
     inkscape:current-layer="svg35" />
  <defs
     id="defs7">
    <linearGradient
       id="linearGradient4501"
       x1="-47"
       x2="-1"
       y1="2.8779e-15"
       y2="6.1232e-17"
       gradientUnits="userSpaceOnUse">
      <stop
         style="stop-color:#e4e4e4"
         offset="0"
         id="stop2" />
      <stop
         style="stop-color:#eee"
         offset="1"
         id="stop4" />
    </linearGradient>
  </defs>
  <g
     transform="translate(0 3.949e-5)"
     id="g15">
    <path
       d="m1 43v0.25c0 2.216 1.784 4 4 4h38c2.216 0 4-1.784 4-4v-0.25c0 2.216-1.784 4-4 4h-38c-2.216 0-4-1.784-4-4zm0 0.5v0.5c0 2.216 1.784 4 4 4h38c2.216 0 4-1.784 4-4v-0.5c0 2.216-1.784 4-4 4h-38c-2.216 0-4-1.784-4-4z"
       style="opacity:.02"
       id="path9" />
    <path
       d="m1 43.25v0.25c0 2.216 1.784 4 4 4h38c2.216 0 4-1.784 4-4v-0.25c0 2.216-1.784 4-4 4h-38c-2.216 0-4-1.784-4-4z"
       style="opacity:.05"
       id="path11" />
    <path
       d="m1 43v0.25c0 2.216 1.784 4 4 4h38c2.216 0 4-1.784 4-4v-0.25c0 2.216-1.784 4-4 4h-38c-2.216 0-4-1.784-4-4z"
       style="opacity:.1"
       id="path13" />
  </g>
  <rect
     transform="rotate(-90)"
     x="-47"
     y="1"
     width="46"
     height="46"
     rx="4"
     style="fill:#eeeeec"
     id="rect17" />
  <path
     d="m8.002 1v5.5l-0.00195 0.00195v0.5h-7v1.002l7-0.00195v7h-7v1h6.998v7h-6.998v1h6.998v7h-6.998v1h6.998v7l-6.998-2e-3v1.002h7v6.998h1l-0.00195-5.5645 0.00391 0.0039v-1.4375h6.9961v6.998h1.0039v-6.9961h6.9961v6.9961h1v-6.998h7v6.998h1v-6.9961l7-0.0039v0.5l2e-3 -2e-3v6.502h1v-7h6v-1h-6l-2e-3 -6.9961h6.002v-1.0039h-6.002v-6.9961h6.002v-1.0039h-6.002v-6.9961h6.002v-1.0039h-6l2e-3 -6.9961h5.998v-1h-5.998v-6.0039h-1v5.5098l-0.0059-0.00586v0.5l-6.9961-0.00391v-6h-1.0039v6.002h-6.9961v-6.002h-1v6h-7v-6h-1v6.002h-7v-1.4395l0.00195-4.5625h-1zm1 7.0039h6.998v6.9961h-6.998zm8 0h6.998v6.9961h-6.998zm8 0h6.998v6.9961h-6.998zm8 0h6.998v6.9961h-6.998zm-24 8h6.998v6.9961h-6.998zm8 0h6.998v6.9961h-6.998zm8 0h6.998v6.9961h-6.998zm8 0h6.998v6.9961h-6.998zm-24 8h6.998v6.9961h-6.998zm8 0h6.998v6.9961h-6.998zm8 0h6.998v6.9961h-6.998zm8 0h6.998v6.9961h-6.998zm-24 8h6.998v6.9961h-6.998zm8 0h6.998v6.9961h-6.998zm8 0h6.998v6.9961h-6.998zm8 0h6.998v6.9961h-6.998z"
     style="fill:#729fcf;opacity:0.2"
     id="path19"
     inkscape:export-filename="/tmp/flowcell.png"
     inkscape:export-xdpi="313.04001"
     inkscape:export-ydpi="313.04001" />
  <path
     d="m24 1v22h-23v1h23v23h1v-23h22v-1h-22v-22z"
     style="fill:#555753"
     id="path21" />
  <g
     transform="translate(0 3.949e-5)"
     id="g27">
    <g
       transform="translate(0 -1004.4)"
       id="g25">
      <path
         d="m1 1043.4v4c0 2.216 1.784 4 4 4h38c2.216 0 4-1.784 4-4v-4c0 2.216-1.784 4-4 4h-38c-2.216 0-4-1.784-4-4z"
         style="opacity:.1"
         id="path23" />
    </g>
  </g>
  <g
     transform="translate(0,-1)"
     id="g33"
     style="fill:#cc0000">
    <path
       d="m 34.547,13 -0.045,0.703 c -0.348,5.624 -0.919,9.48 -1.629,11.959 -0.71,2.479 -1.555,3.468 -2.193,3.703 -0.319,0.118 -0.648,0.109 -1.084,-0.047 -0.436,-0.155 -0.954,-0.472 -1.504,-0.912 -1.099,-0.881 -2.321,-2.241 -3.555,-3.623 -1.233,-1.382 -2.477,-2.784 -3.734,-3.787 -0.629,-0.501 -1.264,-0.909 -1.938,-1.145 -0.674,-0.235 -1.414,-0.284 -2.105,-0.02 -1.383,0.528 -2.336,2.057 -3.094,4.74 -0.758,2.683 -1.322,6.723 -1.666,12.428 h 1.498 c 0.341,-5.647 0.906,-9.522 1.611,-12.02 0.705,-2.497 1.549,-3.505 2.186,-3.748 0.318,-0.121 0.643,-0.114 1.076,0.037 0.433,0.151 0.948,0.461 1.496,0.898 1.096,0.874 2.318,2.232 3.551,3.613 1.233,1.382 2.478,2.789 3.736,3.797 0.629,0.504 1.264,0.912 1.938,1.152 0.674,0.24 1.413,0.297 2.107,0.041 1.388,-0.512 2.351,-2.03 3.115,-4.697 0.764,-2.667 1.334,-7.393 1.686,-13.07 -1.01,0.015 -1,0 -1.453,0 z"
       style="color:#000000;white-space:normal;isolation:auto;mix-blend-mode:normal;solid-color:#000000;fill:#cc0000;fill-opacity:0.09800002;fill-rule:evenodd;color-rendering:auto;image-rendering:auto;shape-rendering:auto"
       isolation="auto"
       mix-blend-mode="normal"
       id="path29"
       inkscape:connector-curvature="0" />
    <path
       d="m 34.547,12 -0.045,0.703 c -0.348,5.624 -0.919,9.48 -1.629,11.959 -0.71,2.479 -1.555,3.468 -2.193,3.703 -0.319,0.118 -0.648,0.109 -1.084,-0.047 -0.436,-0.155 -0.954,-0.472 -1.504,-0.912 -1.099,-0.881 -2.321,-2.241 -3.555,-3.623 -1.233,-1.382 -2.477,-2.784 -3.734,-3.787 -0.629,-0.501 -1.264,-0.909 -1.938,-1.145 -0.674,-0.235 -1.414,-0.284 -2.105,-0.02 -1.383,0.528 -2.336,2.057 -3.094,4.74 -0.758,2.683 -1.322,6.723 -1.666,12.428 h 1.498 c 0.341,-5.647 0.906,-9.522 1.611,-12.02 0.705,-2.497 1.549,-3.505 2.186,-3.748 0.318,-0.121 0.643,-0.114 1.076,0.037 0.433,0.151 0.948,0.461 1.496,0.898 1.096,0.874 2.318,2.232 3.551,3.613 1.233,1.382 2.478,2.789 3.736,3.797 0.629,0.504 1.264,0.912 1.938,1.152 0.674,0.24 1.413,0.297 2.107,0.041 1.388,-0.512 2.351,-2.03 3.115,-4.697 0.764,-2.667 1.334,-7.393 1.686,-13.07 -1.01,0.015 -1,0 -1.453,0 z"
       style="color:#000000;white-space:normal;isolation:auto;mix-blend-mode:normal;solid-color:#000000;fill:#cc0000;fill-rule:evenodd;color-rendering:auto;image-rendering:auto;shape-rendering:auto"
       isolation="auto"
       mix-blend-mode="normal"
       id="path31"
       inkscape:connector-curvature="0" />
  </g>
</svg>
