<svg height="480pt" viewBox="-16 0 480 480.208" width="480pt" xmlns="http://www.w3.org/2000/svg" xmlns:xlink="http://www.w3.org/1999/xlink"><linearGradient id="a"><stop offset="0" stop-color="#00a2cc"/><stop offset="1" stop-color="#2b32b2"/></linearGradient><linearGradient id="b" gradientUnits="userSpaceOnUse" x1="-23.896" x2="452.424" xlink:href="#a" y1="240.208" y2="240.208"/><linearGradient id="c" gradientUnits="userSpaceOnUse" x1="-23.896" x2="452.424" xlink:href="#a" y1="232.208" y2="232.208"/><linearGradient id="d" gradientUnits="userSpaceOnUse" x1="-23.896" x2="452.424" xlink:href="#a" y1="352.208" y2="352.208"/><linearGradient id="e" gradientUnits="userSpaceOnUse" x1="-23.896" x2="452.424" xlink:href="#a" y1="144.208" y2="144.208"/><path d="m24.105469 328.207031h32v64c.035156 30.914063 25.085937 55.964844 56 56h16v24c0 4.417969 3.582031 8 8 8h176c4.417969 0 8-3.582031 8-8v-24h16c30.910156-.035156 55.964843-25.085937 56-56v-64h32c13.253906 0 24-10.746093 24-24v-112c0-13.253906-10.746094-24-24-24h-32v-8c-.035157-30.914062-25.089844-55.964843-56-56v-32.207031c13.773437-10.332031 19.390625-28.316406 13.945312-44.648438-5.445312-16.335937-20.730469-27.351562-37.945312-27.351562-17.21875 0-32.503907 11.015625-37.949219 27.351562-5.445312 16.332032.175781 34.316407 13.949219 44.648438v.175781 32h-128v-32.175781c13.773437-10.332031 19.390625-28.316406 13.945312-44.648438-5.445312-16.335937-20.730469-27.351562-37.945312-27.351562-17.21875 0-32.503907 11.015625-37.949219 27.351562-5.445312 16.332032.175781 34.316407 13.949219 44.648438v32.207031c-30.914063.035157-55.964844 25.085938-56 56v8h-32c-13.257813 0-24 10.746094-24 24v112c0 13.253907 10.742187 24 24 24zm280 136h-160v-16h160zm120-280c4.417969 0 8 3.582031 8 8v24h-16c-4.417969 0-8 3.582031-8 8s3.582031 8 8 8h16v16h-16c-4.417969 0-8 3.582031-8 8s3.582031 8 8 8h16v40c0 4.417969-3.582031 8-8 8h-32v-128zm-112-168c13.253906 0 24 10.746094 24 24 0 13.253907-10.746094 24-24 24-13.257813 0-24-10.746093-24-24 0-13.253906 10.742187-24 24-24zm-8 63.199219c5.277343 1.078125 10.71875 1.078125 16 0v24.800781h-16zm-40 40.800781v32h-80v-32zm-128-104c13.253906 0 24 10.746094 24 24 0 13.253907-10.746094 24-24 24-13.257813 0-24-10.746093-24-24 0-13.253906 10.742187-24 24-24zm-8 63.199219c5.277343 1.078125 10.71875 1.078125 16 0v24.800781h-16zm-56 80.800781c.023437-22.078125 17.917969-39.972656 40-40h56v40c0 4.417969 3.582031 8 8 8h96c4.417969 0 8-3.582031 8-8v-40h56c22.078125.027344 39.972656 17.921875 40 40v232c-.027344 22.082031-17.921875 39.972657-40 40h-224c-22.082031-.027343-39.976563-17.917969-40-40zm-48 24h32v128h-32c-4.417969 0-8-3.582031-8-8v-40h16c4.417969 0 8-3.582031 8-8s-3.582031-8-8-8h-16v-16h16c4.417969 0 8-3.582031 8-8s-3.582031-8-8-8h-16v-24c0-4.417969 3.582031-8 8-8zm0 0" fill="url(#b)"/><path d="m112.105469 232.207031c0 26.511719 21.488281 48 48 48 26.507812 0 48-21.488281 48-48 0-26.507812-21.492188-48-48-48-26.5.027344-47.976563 21.503907-48 48zm48-32c17.671875 0 32 14.328125 32 32 0 17.675781-14.328125 32-32 32-17.675781 0-32-14.324219-32-32 0-17.671875 14.324219-32 32-32zm0 0" fill="url(#c)"/><path d="m288.105469 280.207031c26.507812 0 48-21.488281 48-48 0-26.507812-21.492188-48-48-48-26.511719 0-48 21.492188-48 48 .023437 26.5 21.5 47.972657 48 48zm0-80c17.671875 0 32 14.328125 32 32 0 17.675781-14.328125 32-32 32-17.675781 0-32-14.324219-32-32 0-17.671875 14.324219-32 32-32zm0 0" fill="url(#c)"/><path d="m104.105469 408.207031h240c4.417969 0 8-3.582031 8-8v-96c0-4.417969-3.582031-8-8-8h-240c-4.417969 0-8 3.582031-8 8v96c0 4.417969 3.582031 8 8 8zm8-48h64v32h-64zm80 0h64v32h-64zm144 32h-64v-32h64zm0-48h-64v-32h64zm-80 0h-64v-32h64zm-144-32h64v32h-64zm0 0" fill="url(#d)"/><g fill="url(#e)"><path d="m104.105469 152.207031h16c4.417969 0 8-3.582031 8-8s-3.582031-8-8-8h-16c-4.417969 0-8 3.582031-8 8s3.582031 8 8 8zm0 0"/><path d="m328.105469 152.207031h16c4.417969 0 8-3.582031 8-8s-3.582031-8-8-8h-16c-4.417969 0-8 3.582031-8 8s3.582031 8 8 8zm0 0"/></g></svg>